<svg width="194" height="60" viewBox="0 0 194 60" fill="none" xmlns="http://www.w3.org/2000/svg">
<path d="M186.349 60H6.34875C3.04875 60 0.348755 57.3 0.348755 54V6C0.348755 2.7 3.04875 0 6.34875 0H186.349C189.649 0 192.349 2.7 192.349 6V54C192.349 57.3 189.649 60 186.349 60Z" fill="black"/>
<path d="M40.8488 29.7C40.8488 25.05 44.7488 22.8 44.8988 22.65C42.6488 19.5 39.3488 19.05 38.1488 18.9C35.2988 18.6 32.4488 20.55 31.0988 20.55C29.5988 20.55 27.3488 18.9 24.9488 18.9C21.7988 18.9 18.9488 20.7 17.2988 23.55C13.9988 29.25 16.3988 37.65 19.5488 42.3C21.1988 44.55 22.9988 47.1 25.3988 46.95C27.7988 46.8 28.6988 45.45 31.5488 45.45C34.3988 45.45 35.1488 46.95 37.6988 46.95C40.2488 46.95 41.8988 44.7 43.3988 42.45C45.1988 39.9 45.9488 37.35 45.9488 37.2C45.7988 37.05 40.8488 35.25 40.8488 29.7Z" fill="white"/>
<path d="M36.1988 15.8999C37.3988 14.2499 38.2988 12.1499 38.1488 9.8999C36.3488 10.0499 33.9488 11.0999 32.7488 12.7499C31.5488 14.0999 30.4988 16.3499 30.7988 18.4499C32.7488 18.5999 34.8488 17.3999 36.1988 15.8999Z" fill="white"/>
<path fill-rule="evenodd" clip-rule="evenodd" d="M71.7488 46.65H75.0488L69.0488 27.3H65.1488L58.8488 46.65H61.9988L63.6488 40.95H69.9488L71.7488 46.65ZM67.6988 33.45L69.3488 38.55H64.0988L65.7488 33.45C66.1988 31.95 66.4988 30.6 66.6488 29.85C67.0488 31.05 67.3154 32.05 67.4932 32.7167C67.5821 33.05 67.6488 33.3 67.6988 33.45Z" fill="white"/>
<path fill-rule="evenodd" clip-rule="evenodd" d="M89.1488 45.3C90.4988 43.8 91.0988 42 91.0988 39.6C91.0988 37.35 90.4988 35.7 89.1488 34.5C88.0988 33.15 86.7488 32.55 85.0988 32.55C82.9988 32.55 81.4988 33.45 80.4488 35.1L80.2988 32.85H77.5988C77.7488 34.5 77.7488 36 77.7488 37.5V52.5H80.8988V45.15C81.6488 46.5 82.9988 47.1 84.7988 47.1C86.5988 47.1 87.9488 46.5 89.1488 45.3ZM87.0488 36.3C87.6488 37.05 87.9488 38.25 87.9488 39.6C87.9488 41.1 87.6488 42.3 86.8988 43.2C86.2988 44.1 85.3988 44.55 84.1988 44.55C83.2988 44.55 82.3988 44.25 81.7988 43.5C81.1988 42.75 80.8988 42 80.8988 40.95V38.55C80.8988 38.4 80.8988 38.1 81.0488 37.65C81.1988 36.9 81.6488 36.15 82.2488 35.7C82.8488 35.25 83.5988 34.95 84.3488 34.95C85.5488 34.95 86.4488 35.4 87.0488 36.3Z" fill="white"/>
<path fill-rule="evenodd" clip-rule="evenodd" d="M105.199 45.3C106.549 43.8 107.149 42 107.149 39.6C107.149 37.35 106.549 35.7 105.199 34.5C104.149 33.15 102.799 32.55 101.149 32.55C99.0487 32.55 97.5487 33.45 96.4987 35.1L96.3487 32.85H93.6487C93.7987 34.5 93.7987 36 93.7987 37.5V52.5H96.9487V45.15C97.6987 46.5 99.0487 47.1 100.849 47.1C102.649 47.1 103.999 46.5 105.199 45.3ZM103.099 36.3C103.699 37.05 103.999 38.25 103.999 39.6C103.999 41.1 103.699 42.3 102.949 43.2C102.349 44.1 101.449 44.55 100.249 44.55C99.3487 44.55 98.4487 44.25 97.8487 43.5C97.2487 42.75 96.9487 42 96.9487 40.95V38.55C96.9487 38.4 96.9487 38.1 97.0987 37.65C97.2487 36.9 97.6987 36.15 98.2987 35.7C98.8987 35.25 99.6487 34.95 100.399 34.95C101.599 34.95 102.499 35.4 103.099 36.3Z" fill="white"/>
<path d="M125.149 41.2499C125.149 42.8999 124.549 44.2499 123.499 45.2999C122.299 46.4999 120.499 46.9499 118.249 46.9499C116.149 46.9499 114.499 46.4999 113.299 45.7499L114.049 43.1999C115.399 43.9499 116.899 44.3999 118.549 44.3999C119.749 44.3999 120.649 44.0999 121.249 43.6499C121.849 43.0499 122.149 42.4499 122.149 41.5499C122.149 40.7999 121.849 40.0499 121.399 39.5999C120.799 38.9999 119.899 38.5499 118.699 38.0999C115.249 36.8999 113.599 34.9499 113.599 32.5499C113.599 30.8999 114.199 29.6999 115.399 28.6499C116.599 27.5999 118.099 27.1499 120.199 27.1499C121.999 27.1499 123.349 27.4499 124.549 28.0499L123.799 30.5999C122.749 29.9999 121.549 29.6999 120.049 29.6999C118.999 29.6999 118.099 29.9999 117.499 30.4499C117.049 30.8999 116.749 31.4999 116.749 32.2499C116.749 32.9999 117.049 33.5999 117.649 34.1999C118.099 34.6499 119.149 35.0999 120.499 35.6999C122.149 36.2999 123.349 37.1999 124.249 38.0999C124.699 38.8499 125.149 39.8999 125.149 41.2499Z" fill="white"/>
<path d="M135.349 35.1H131.899V41.85C131.899 43.5 132.499 44.4 133.699 44.4C134.299 44.4 134.749 44.4 135.049 44.25L135.199 46.65C134.599 46.95 133.849 46.95 132.799 46.95C131.599 46.95 130.549 46.65 129.949 45.9C129.199 45.15 128.899 43.95 128.899 42.15V35.1H126.799V32.7H128.899V30.15L131.899 29.25V32.7H135.349V35.1Z" fill="white"/>
<path fill-rule="evenodd" clip-rule="evenodd" d="M148.999 44.8499C150.199 43.4999 150.799 41.6999 150.799 39.5999C150.799 37.4999 150.199 35.8499 149.149 34.4999C147.949 33.1499 146.299 32.3999 144.199 32.3999C142.099 32.3999 140.299 33.1499 139.099 34.4999C137.749 35.8499 137.149 37.6499 137.149 39.7499C137.149 41.8499 137.749 43.4999 138.949 44.8499C140.149 46.1999 141.799 46.9499 143.899 46.9499C145.999 46.9499 147.649 46.1999 148.999 44.8499ZM146.599 36.4499C147.199 37.3499 147.499 38.3999 147.499 39.7499C147.499 40.9499 147.199 42.1499 146.599 43.0499C145.849 44.0999 144.949 44.6999 143.749 44.6999C142.549 44.6999 141.499 44.0999 140.899 43.0499C140.299 42.1499 139.999 41.0999 139.999 39.7499C139.999 38.5499 140.299 37.3499 140.899 36.4499C141.499 35.3999 142.549 34.7999 143.749 34.7999C144.949 34.7999 145.999 35.3999 146.599 36.4499Z" fill="white"/>
<path d="M160.849 35.4C160.549 35.4 160.249 35.25 159.799 35.25C158.749 35.25 157.849 35.7 157.249 36.45C156.799 37.2 156.499 38.1 156.499 39.15V46.5H153.349V36.9C153.349 35.25 153.349 33.9 153.199 32.55H155.899L156.049 35.25H156.199C156.499 34.35 157.099 33.6 157.699 33C158.449 32.55 159.199 32.25 159.949 32.25C160.249 32.25 160.549 32.25 160.699 32.25V35.4H160.849Z" fill="white"/>
<path fill-rule="evenodd" clip-rule="evenodd" d="M174.499 40.3499C174.649 40.0499 174.649 39.5999 174.649 38.9999C174.649 37.3499 174.349 35.8499 173.299 34.6499C172.399 33.1499 170.749 32.3999 168.799 32.3999C166.699 32.3999 165.049 33.1499 163.849 34.6499C162.799 35.9999 162.199 37.7999 162.199 39.8999C162.199 41.9999 162.799 43.7999 163.999 44.9999C165.199 46.3499 166.999 46.9499 169.099 46.9499C170.899 46.9499 172.399 46.6499 173.749 46.0499L173.299 43.9499C172.249 44.3999 170.899 44.5499 169.549 44.5499C168.349 44.5499 167.299 44.0999 166.549 43.4999C165.649 42.7499 165.199 41.6999 165.199 40.3499H174.499ZM171.797 38.0999C171.798 38.1494 171.799 38.1994 171.799 38.2499V38.0999H171.797ZM171.797 38.0999C171.781 37.2658 171.623 36.5578 171.199 35.8499C170.599 34.9499 169.849 34.4999 168.799 34.4999C167.749 34.4999 166.999 34.9499 166.399 35.6999C165.949 36.2999 165.649 37.1999 165.499 38.0999H171.797Z" fill="white"/>
<path fill-rule="evenodd" clip-rule="evenodd" d="M66.9487 19.35C67.9987 18.45 68.4487 17.1 68.4487 15.45C68.4487 13.95 67.8487 12.75 67.0987 12C66.1987 11.25 64.9987 10.95 63.3487 10.95C62.2987 10.95 61.3987 10.95 60.6487 11.1V20.4C61.2487 20.55 61.9987 20.55 62.8987 20.55C64.6987 20.55 66.0487 20.1 66.9487 19.35ZM65.8987 12.9C66.4987 13.5 66.7987 14.4 66.7987 15.45C66.7987 16.65 66.4987 17.7 65.8987 18.3C65.2987 18.9 64.3987 19.2 63.1987 19.2H62.1487V12.15C62.4487 12 62.8987 12 63.3487 12C64.3987 12 65.2987 12.3 65.8987 12.9Z" fill="white"/>
<path fill-rule="evenodd" clip-rule="evenodd" d="M75.9488 19.5001C76.5488 18.9001 76.8488 18.0001 76.8488 16.9501C76.8488 15.9001 76.5488 15.0001 75.9488 14.4001C75.3488 13.6501 74.5988 13.3501 73.5488 13.3501C72.4988 13.3501 71.5988 13.6501 70.9988 14.4001C70.3988 15.0001 70.0988 15.9001 70.0988 16.9501C70.0988 18.0001 70.3988 18.9001 70.9988 19.5001C71.5988 20.2501 72.3488 20.5501 73.3988 20.5501C74.4488 20.5501 75.3488 20.2501 75.9488 19.5001ZM74.8988 15.3001C75.1988 15.7501 75.3488 16.3501 75.3488 16.9501C75.3488 17.5501 75.1988 18.1501 74.8988 18.4501C74.5988 19.0501 74.1488 19.3501 73.5488 19.3501C72.9488 19.3501 72.4988 19.2001 72.1988 18.6001C71.8988 18.1501 71.7488 17.5501 71.7488 16.9501C71.7488 16.3501 71.8988 15.7501 72.1988 15.3001C72.4988 14.8501 72.9488 14.5501 73.5488 14.5501C74.1488 14.5501 74.5988 14.7001 74.8988 15.3001Z" fill="white"/>
<path d="M88.3988 13.5L86.2988 20.4H84.9488L84.0488 17.4C83.7488 16.65 83.5988 15.9 83.4488 15.15V15.15C83.2988 15.9 83.1488 16.65 82.8488 17.4L81.9488 20.4H80.5988L78.3488 13.5H79.8488L80.5988 16.8C80.7488 17.55 80.8988 18.3 81.0488 19.05V19.05C81.1988 18.45 81.3488 17.7 81.6488 16.8L82.5488 13.5H83.7488L84.6488 16.65C84.9488 17.4 85.0988 18.15 85.2488 18.9V18.9C85.3988 18.15 85.5488 17.4 85.6988 16.65L86.5988 13.5H88.3988Z" fill="white"/>
<path d="M96.1988 20.4H94.6988V16.5C94.6988 15.3 94.2488 14.7 93.3488 14.7C92.8988 14.7 92.5988 14.85 92.2988 15.15C91.9988 15.45 91.8488 15.9 91.8488 16.35V20.4H90.3488V15.45C90.3488 14.85 90.3488 14.25 90.3488 13.5H91.6988V14.55V14.55C91.8488 14.25 92.1488 13.95 92.4488 13.65C92.8988 13.35 93.3488 13.2 93.7988 13.2C94.3988 13.2 94.9988 13.35 95.4488 13.8C96.0488 14.25 96.1988 15 96.1988 16.05V20.4Z" fill="white"/>
<path d="M100.399 20.4001H98.8987V10.3501H100.399V20.4001Z" fill="white"/>
<path fill-rule="evenodd" clip-rule="evenodd" d="M108.499 19.5001C109.099 18.9001 109.399 18.0001 109.399 16.9501C109.399 15.9001 109.099 15.0001 108.499 14.4001C107.899 13.6501 107.149 13.3501 106.099 13.3501C105.049 13.3501 104.149 13.8001 103.549 14.4001C102.949 15.0001 102.649 15.9001 102.649 16.9501C102.649 18.0001 102.949 18.9001 103.549 19.5001C104.149 20.2501 104.899 20.5501 105.949 20.5501C106.999 20.5501 107.899 20.2501 108.499 19.5001ZM107.449 15.3001C107.749 15.7501 107.899 16.3501 107.899 16.9501C107.899 17.5501 107.749 18.1501 107.449 18.4501C107.149 19.0501 106.699 19.3501 106.099 19.3501C105.499 19.3501 105.049 19.2001 104.749 18.6001C104.449 18.1501 104.299 17.5501 104.299 16.9501C104.299 16.3501 104.449 15.7501 104.749 15.3001C105.049 14.8501 105.499 14.5501 106.099 14.5501C106.699 14.5501 107.149 14.7001 107.449 15.3001Z" fill="white"/>
<path fill-rule="evenodd" clip-rule="evenodd" d="M115.399 20.4001H116.749V20.4001C116.749 19.9501 116.749 19.5001 116.899 18.7501V16.2001C116.899 14.2501 115.999 13.3501 114.199 13.3501C113.149 13.3501 112.399 13.5001 111.799 13.9501L112.099 15.0001C112.699 14.7001 113.149 14.5501 113.899 14.5501C114.799 14.5501 115.249 15.0001 115.249 15.9001V16.0501C113.899 16.0501 112.999 16.2001 112.249 16.6501C111.499 17.1001 111.199 17.7001 111.199 18.6001C111.199 19.0501 111.499 19.5001 111.799 19.9501C112.099 20.4001 112.699 20.5501 113.299 20.5501C114.049 20.5501 114.799 20.2501 115.249 19.6501L115.399 20.4001ZM115.249 16.9501V18.0001V18.3001C115.099 18.6001 114.949 18.9001 114.649 19.0501C114.349 19.2001 114.049 19.3501 113.749 19.3501C113.449 19.3501 113.149 19.2001 112.999 19.0501C112.849 18.9001 112.699 18.6001 112.699 18.3001C112.699 17.4001 113.599 16.9501 115.249 16.9501Z" fill="white"/>
<path fill-rule="evenodd" clip-rule="evenodd" d="M124.099 20.4H125.449V18.6V10.5H123.949V14.4C123.499 13.8 122.899 13.5 121.999 13.5C121.249 13.5 120.499 13.8 119.899 14.4C119.299 15.15 118.999 16.05 118.999 17.1C118.999 18.15 119.149 19.05 119.749 19.65C120.349 20.25 120.949 20.55 121.849 20.55C122.899 20.55 123.649 20.25 124.099 19.35V20.4ZM123.949 16.35V17.55C123.949 18 123.799 18.45 123.499 19.05C123.199 19.5 122.749 19.65 122.299 19.65C121.699 19.65 121.249 19.35 120.949 18.9C120.649 18.45 120.499 18 120.499 17.25C120.499 16.5 120.649 15.9 120.949 15.45C121.249 15 121.699 14.7 122.299 14.7C122.749 14.7 123.049 14.7 123.349 15C123.649 15.3 123.799 15.6 123.949 15.9V16.35Z" fill="white"/>
<path fill-rule="evenodd" clip-rule="evenodd" d="M137.599 19.5001C138.199 18.9001 138.499 18.0001 138.499 16.9501C138.499 15.9001 138.199 15.0001 137.599 14.4001C136.999 13.6501 136.249 13.3501 135.199 13.3501C134.149 13.3501 133.249 13.6501 132.649 14.4001C132.049 15.0001 131.749 15.9001 131.749 16.9501C131.749 18.0001 132.049 18.9001 132.649 19.5001C133.249 20.2501 133.999 20.5501 135.049 20.5501C136.099 20.5501 136.999 20.2501 137.599 19.5001ZM136.399 15.3001C136.699 15.7501 136.849 16.3501 136.849 16.9501C136.849 17.5501 136.699 18.1501 136.399 18.4501C136.099 19.0501 135.649 19.3501 135.049 19.3501C134.449 19.3501 133.999 19.2001 133.699 18.6001C133.399 18.1501 133.249 17.5501 133.249 16.9501C133.249 16.3501 133.399 15.7501 133.699 15.3001C133.999 14.8501 134.449 14.5501 135.049 14.5501C135.649 14.5501 136.099 14.7001 136.399 15.3001Z" fill="white"/>
<path d="M146.749 20.4H145.249V16.5C145.249 15.3 144.799 14.7 143.899 14.7C143.449 14.7 143.149 14.85 142.849 15.15C142.549 15.45 142.399 15.9 142.399 16.35V20.4H140.899V15.45C140.899 14.85 140.899 14.25 140.899 13.5H142.249V14.55V14.55C142.399 14.25 142.699 13.95 142.999 13.65C143.449 13.35 143.899 13.2 144.349 13.2C144.949 13.2 145.549 13.35 145.999 13.8C146.599 14.25 146.749 15 146.749 16.05V20.4Z" fill="white"/>
<path d="M156.949 14.7001H155.299V18.0001C155.299 18.9001 155.599 19.2001 156.199 19.2001C156.499 19.2001 156.649 19.2001 156.949 19.2001V20.4001C156.649 20.5501 156.199 20.5501 155.749 20.5501C155.149 20.5501 154.699 20.4001 154.399 19.9501C154.099 19.6501 153.949 18.9001 153.949 18.1501V14.7001H152.899V13.5001H153.949V12.3001L155.449 11.8501V13.5001H157.099V14.7001H156.949Z" fill="white"/>
<path d="M165.049 20.4001H163.549V16.5001C163.549 15.3001 163.099 14.7001 162.199 14.7001C161.449 14.7001 160.999 15.0001 160.699 15.7501C160.699 15.9001 160.699 16.0501 160.699 16.3501V20.4001H159.199V10.3501H160.699V14.5501V14.5501C161.149 13.8001 161.899 13.3501 162.799 13.3501C163.399 13.3501 163.999 13.5001 164.299 13.9501C164.749 14.4001 165.049 15.3001 165.049 16.2001V20.4001Z" fill="white"/>
<path fill-rule="evenodd" clip-rule="evenodd" d="M173.299 17.4V16.65C173.299 15.75 173.149 15 172.849 14.55C172.399 13.8 171.649 13.5 170.599 13.5C169.549 13.5 168.799 13.8 168.199 14.55C167.599 15.15 167.299 16.05 167.299 17.1C167.299 18.15 167.599 19.05 168.199 19.65C168.799 20.25 169.699 20.55 170.749 20.55C171.649 20.55 172.399 20.4 172.999 20.1L172.699 19.05C172.249 19.2 171.649 19.35 170.899 19.35C170.299 19.35 169.849 19.2 169.399 18.9C169.099 18.6 168.799 18.15 168.799 17.4H173.299ZM171.649 15C171.799 15.3 171.949 15.75 171.949 16.2H168.799C168.799 15.75 168.949 15.3 169.249 15C169.549 14.55 169.999 14.4 170.449 14.4C171.049 14.4 171.349 14.55 171.649 15Z" fill="white"/>
</svg>
