<svg width="13" height="13" viewBox="0 0 13 13" fill="none" xmlns="http://www.w3.org/2000/svg">
<path d="M10.875 2.70829L10.5133 8.55621C10.4212 10.0501 10.3751 10.7974 10 11.3346C9.81483 11.6001 9.57645 11.8242 9.3 11.9926C8.74175 12.3333 7.99333 12.3333 6.4965 12.3333C4.99733 12.3333 4.24775 12.3333 3.68833 11.992C3.41177 11.8233 3.17337 11.5988 2.98833 11.3329C2.61383 10.795 2.56833 10.0466 2.4785 8.55038L2.125 2.70829M1.25 2.70829H11.75M8.866 2.70829L8.46758 1.88696C8.20333 1.34096 8.07092 1.06854 7.84283 0.898209C7.79217 0.860477 7.73852 0.826922 7.68242 0.797876C7.42983 0.666626 7.1265 0.666626 6.52042 0.666626C5.89858 0.666626 5.58767 0.666626 5.33042 0.803126C5.27355 0.833582 5.21931 0.868703 5.16825 0.908126C4.93783 1.08488 4.80892 1.36779 4.55108 1.93304L4.19758 2.70829M5.04167 9.12496V5.62496M7.95833 9.12496V5.62496" stroke="#090C10" stroke-linecap="round" stroke-linejoin="round"/>
</svg>
