<svg width="13" height="13" viewBox="0 0 13 13" fill="none" xmlns="http://www.w3.org/2000/svg">
<path d="M5.91667 0.666667H4.75C1.83333 0.666667 0.666667 1.83333 0.666667 4.75V8.25C0.666667 11.1667 1.83333 12.3333 4.75 12.3333H8.25C11.1667 12.3333 12.3333 11.1667 12.3333 8.25V7.08333" stroke="#090C10" stroke-linecap="round" stroke-linejoin="round"/>
<path d="M8.85667 1.26167L4.26 5.85833C4.085 6.03333 3.91 6.3775 3.875 6.62833L3.62417 8.38417C3.53083 9.02 3.98 9.46333 4.61583 9.37583L6.37167 9.125C6.61667 9.09 6.96083 8.915 7.14167 8.74L11.7383 4.14333C12.5317 3.35 12.905 2.42833 11.7383 1.26167C10.5717 0.095 9.65 0.468333 8.85667 1.26167Z" stroke="#090C10" stroke-miterlimit="10" stroke-linecap="round" stroke-linejoin="round"/>
<path d="M8.1975 1.92083C8.58833 3.315 9.67917 4.40583 11.0792 4.8025" stroke="#090C10" stroke-miterlimit="10" stroke-linecap="round" stroke-linejoin="round"/>
</svg>
