<svg width="20" height="22" viewBox="0 0 20 22" fill="none" xmlns="http://www.w3.org/2000/svg">
<path d="M3.40039 1.09998H16.6004C17.7004 1.09998 18.6004 1.99998 18.6004 3.09998V5.29998C18.6004 6.09998 18.1004 7.09998 17.6004 7.59998L13.3004 11.4C12.7004 11.9 12.3004 12.9 12.3004 13.7V18C12.3004 18.6 11.9004 19.4 11.4004 19.7L10.0004 20.6C8.70039 21.4 6.90039 20.5 6.90039 18.9V13.6C6.90039 12.9 6.50039 12 6.10039 11.5L2.30039 7.49998C1.80039 6.99998 1.40039 6.09998 1.40039 5.49998V3.19998C1.40039 1.99998 2.30039 1.09998 3.40039 1.09998Z" stroke="#090C10" stroke-width="1.5" stroke-miterlimit="10" stroke-linecap="round" stroke-linejoin="round"/>
<path d="M8.93 1.1L4 9" stroke="#090C10" stroke-width="1.5" stroke-miterlimit="10" stroke-linecap="round" stroke-linejoin="round"/>
</svg>
