<svg width="190" height="60" viewBox="0 0 190 60" fill="none" xmlns="http://www.w3.org/2000/svg">
<path d="M182.463 59.2683H6.85366C3.63415 59.2683 1 56.6341 1 53.4146V6.58535C1 3.36584 3.63415 0.731689 6.85366 0.731689H182.463C185.683 0.731689 188.317 3.36584 188.317 6.58535V53.4146C188.317 56.6341 185.683 59.2683 182.463 59.2683Z" fill="black"/>
<path fill-rule="evenodd" clip-rule="evenodd" d="M15.3415 29.4146V14.0487C15.3415 13.1707 16.0732 12.439 16.8049 12.439C17.5366 12.439 17.8293 12.5853 18.2683 12.878L46.5122 28.3902C47.0976 28.6829 47.3902 29.1219 47.3902 29.5609C47.3902 29.9999 47.0976 30.439 46.5122 30.7316L18.2683 46.2438C17.9756 46.3902 17.5366 46.6829 16.8049 46.6829C16.0732 46.6829 15.3415 45.9512 15.3415 45.0731V29.4146Z" fill="url(#paint0_linear_0_321)"/>
<path fill-rule="evenodd" clip-rule="evenodd" d="M33.6341 29.5609L16.5122 12.439C16.6585 12.439 16.6585 12.439 16.8049 12.439C17.5366 12.439 17.8292 12.5853 18.2683 12.878L39.0488 24.2926L33.6341 29.5609Z" fill="url(#paint1_linear_0_321)"/>
<path fill-rule="evenodd" clip-rule="evenodd" d="M38.9024 34.6829L33.6341 29.4146L39.0488 24L46.5122 28.0976C47.0975 28.3902 47.3902 28.8293 47.3902 29.2683C47.3902 29.7073 47.0975 30.1463 46.5122 30.439L38.9024 34.6829Z" fill="url(#paint2_linear_0_321)"/>
<path fill-rule="evenodd" clip-rule="evenodd" d="M16.6585 46.3902V46.3902L33.6341 29.4146L38.9024 34.6828L18.2683 45.9511C17.8292 46.2438 17.5366 46.3902 16.6585 46.3902C16.8048 46.3902 16.8048 46.3902 16.6585 46.3902Z" fill="url(#paint3_linear_0_321)"/>
<path fill-rule="evenodd" clip-rule="evenodd" d="M105.049 50.3415C104.317 49.7562 103.732 48.7318 103.439 48.1464L105.78 47.122C105.927 47.4147 106.22 47.8537 106.512 48.2928C107.098 48.8781 107.976 49.4635 108.854 49.4635C109.732 49.4635 110.756 49.0245 111.341 48.2928C111.78 47.561 112.073 46.8293 112.073 45.8049V44.9269C110.317 47.122 106.659 46.8293 104.61 44.4879C102.415 42.1464 102.415 38.1952 104.61 35.8537C106.805 33.6586 110.024 33.3659 111.927 35.4147V35.4147V34.3903H114.415V45.3659C114.415 48.1464 113.39 49.7562 112.073 50.7806C111.195 51.5123 109.878 51.8049 108.707 51.8049C107.39 51.6586 106.073 51.2196 105.049 50.3415V50.3415ZM166.366 50.9269V50.9269L168.854 45.0732L164.463 34.9757H166.951L170.024 42.1464L173.098 34.9757H175.585L168.854 50.9269H166.366V50.9269ZM154.512 45.3659V45.3659C153.78 44.6342 153.488 43.6098 153.488 42.5854C153.488 41.7074 153.78 40.8293 154.366 40.244C155.39 39.2196 156.854 38.7806 158.463 38.7806C159.488 38.7806 160.366 38.9269 161.098 39.3659C161.098 37.6098 159.634 36.8781 158.463 36.8781C157.439 36.8781 156.415 37.4635 155.976 38.4879L153.78 37.6098C154.22 36.5854 155.39 34.683 158.317 34.683C159.78 34.683 161.244 35.122 162.122 36.1464C163 37.1708 163.293 38.3415 163.293 39.9513V46.0976H160.805V45.0732C160.512 45.5123 159.927 45.8049 159.488 46.0976C158.902 46.3903 158.171 46.5367 157.439 46.5367C156.561 46.3903 155.244 46.0976 154.512 45.3659V45.3659ZM76.5122 40.0976V40.0976C76.5122 37.1708 78.7073 33.9513 82.6585 33.9513C86.4634 33.9513 88.8049 37.1708 88.8049 40.0976C88.8049 43.0245 86.6097 46.244 82.6585 46.244C78.7073 46.244 76.5122 43.0245 76.5122 40.0976V40.0976ZM89.6829 40.0976V40.0976C89.6829 37.1708 91.878 33.9513 95.8293 33.9513C99.6341 33.9513 101.976 37.1708 101.976 40.0976C101.976 43.0245 99.7805 46.244 95.8293 46.244C92.0244 46.244 89.6829 43.0245 89.6829 40.0976V40.0976ZM59.9756 43.3171V43.3171C56.3171 39.6586 56.4634 33.6586 60.1219 29.8537C62.0244 27.9513 64.3658 27.0732 66.8537 27.0732C69.1951 27.0732 71.5366 27.9513 73.2927 29.7074L71.5366 31.6098C68.9024 28.9757 64.6585 29.122 62.1707 31.7562C59.5366 34.5367 59.5366 38.7806 62.1707 41.561C64.8049 44.3415 69.1951 44.4879 71.8293 41.7074C72.7073 40.8293 73 39.6586 73.1463 38.4879H67V35.8537H75.6341C75.7805 36.4391 75.7805 37.1708 75.7805 37.9025C75.7805 40.0976 74.9024 42.2928 73.439 43.7562C71.8293 45.3659 69.4878 46.244 67.1463 46.244C64.5122 46.0976 61.878 45.2196 59.9756 43.3171V43.3171ZM121.878 44.3415V44.3415C119.683 42.0001 119.683 38.0489 121.878 35.561C124.073 33.2196 127.732 33.2196 129.78 35.561C130.512 36.2928 130.951 37.3171 131.39 38.3415L123.341 41.7074C123.78 42.7318 124.805 43.6098 126.268 43.6098C127.585 43.6098 128.463 43.1708 129.341 41.8537L131.537 43.3171V43.3171C131.244 43.6098 130.951 43.9025 130.805 44.1952C128.317 46.683 124.073 46.683 121.878 44.3415V44.3415ZM137.098 46.0976V46.0976V29.8537H142.366C145.439 29.8537 147.927 32.0489 147.927 34.683C147.927 37.3171 145.732 39.5123 142.951 39.5123H139.732V45.9513H137.098V46.0976ZM149.39 46.0976V46.0976V29.8537H151.878V46.0976H149.39V46.0976ZM116.317 45.8049V45.8049V27.6586H118.951V45.8049H116.317V45.8049ZM160.951 41.2684V41.2684C160.366 40.8293 159.488 40.683 158.61 40.683C156.854 40.683 155.829 41.561 155.829 42.5854C155.829 43.6098 156.854 44.1952 157.878 44.1952C159.341 44.1952 160.951 43.0245 160.951 41.2684V41.2684ZM86.0244 40.0976V40.0976C86.0244 38.3415 84.8537 36.4391 82.6585 36.4391C80.4634 36.4391 79.2927 38.3415 79.2927 40.0976C79.2927 41.8537 80.4634 43.7562 82.6585 43.7562C84.7073 43.7562 86.0244 41.8537 86.0244 40.0976V40.0976ZM99.1951 40.0976V40.0976C99.1951 38.3415 98.0244 36.4391 95.8293 36.4391C93.6341 36.4391 92.4634 38.3415 92.4634 40.0976C92.4634 41.8537 93.6341 43.7562 95.8293 43.7562C98.0244 43.7562 99.1951 41.8537 99.1951 40.0976V40.0976ZM112.22 41.122V41.122C112.22 40.9757 112.22 40.8293 112.366 40.683V40.683C112.366 40.5367 112.366 40.244 112.366 40.0976C112.366 39.9513 112.366 39.6586 112.366 39.5123V39.3659C112.366 39.2196 112.22 38.9269 112.22 38.7806C111.78 37.3171 110.463 36.2928 109.146 36.2928C107.39 36.2928 105.927 38.0489 105.927 39.9513C105.927 42.0001 107.39 43.6098 109.293 43.6098C110.463 43.7562 111.634 42.7318 112.22 41.122V41.122ZM122.902 39.8049V39.8049L128.317 37.4635C127.732 36.4391 126.854 36.1464 126.122 36.1464C123.927 36.2928 122.61 38.6342 122.902 39.8049V39.8049ZM145.293 34.8293V34.8293C145.293 33.3659 144.122 32.3415 142.512 32.3415H139.585V37.4635H142.659C144.122 37.4635 145.293 36.2928 145.293 34.8293Z" fill="white"/>
<path fill-rule="evenodd" clip-rule="evenodd" d="M168.268 47.9999V47.9999H168.122V47.9999V47.8536V47.8536H168.268V47.8536H168.122V47.8536V47.9999V47.9999H168.268Z" fill="white"/>
<path fill-rule="evenodd" clip-rule="evenodd" d="M168.707 47.8536H168.561V47.8536H168.707V47.9999V47.9999V47.8536V47.8536V47.8536Z" fill="white"/>
<path d="M57.9268 15.5122C57.9268 12.8781 59.8293 11.2683 62.1707 11.2683C63.7805 11.2683 64.8049 12 65.5366 13.0244L64.3658 13.7561C63.9268 13.1707 63.1951 12.7317 62.1707 12.7317C60.561 12.7317 59.3902 13.9025 59.3902 15.6586C59.3902 17.4147 60.561 18.5854 62.1707 18.5854C63.0488 18.5854 63.7805 18.1464 64.0732 17.8537V16.5366H61.7317V15.2195H65.6829V18.2927C64.9512 19.1707 63.7805 19.7561 62.3171 19.7561C59.8293 19.7561 57.9268 18 57.9268 15.5122Z" fill="white"/>
<path d="M67.439 19.6097V11.4146H73V12.7316H68.7561V14.7804H72.8537V16.0975H68.7561V18.4389H73V19.756L67.439 19.6097V19.6097Z" fill="white"/>
<path d="M77.0975 19.6097V12.7316H74.6097V11.4146H81.0488V12.7316H78.561V19.6097H77.0975Z" fill="white"/>
<path d="M86.0244 19.6097V11.4146H87.4878V19.6097H86.0244Z" fill="white"/>
<path d="M91.439 19.6097V12.7316H88.9512V11.4146H95.3903V12.7316H92.9025V19.6097H91.439Z" fill="white"/>
<path fill-rule="evenodd" clip-rule="evenodd" d="M104.317 11.2683C101.829 11.2683 100.073 13.0244 100.073 15.5122C100.073 17.8537 101.829 19.7561 104.317 19.7561C106.805 19.7561 108.561 18 108.561 15.5122C108.561 13.0244 106.805 11.2683 104.317 11.2683ZM104.171 12.5854C105.927 12.5854 106.951 13.7561 106.951 15.5122C106.951 17.122 105.927 18.439 104.171 18.439C102.415 18.439 101.39 17.2683 101.39 15.5122C101.39 13.9025 102.561 12.5854 104.171 12.5854Z" fill="white"/>
<path d="M115.878 19.6097L111.634 13.756V19.6097H110.171V11.4146H111.634L115.878 17.1219V11.4146H117.341V19.6097H115.878Z" fill="white"/>
<defs>
<linearGradient id="paint0_linear_0_321" x1="9.06171" y1="14.7284" x2="18.3316" y2="48.0741" gradientUnits="userSpaceOnUse">
<stop stop-color="#006884"/>
<stop offset="1" stop-color="#8AD1D0"/>
</linearGradient>
<linearGradient id="paint1_linear_0_321" x1="6.87246" y1="23.6181" x2="24.7874" y2="40.3972" gradientUnits="userSpaceOnUse">
<stop stop-color="#24BBB6"/>
<stop offset="1" stop-color="#DBE692"/>
</linearGradient>
<linearGradient id="paint2_linear_0_321" x1="47.9929" y1="35.2977" x2="47.9929" y2="23.6659" gradientUnits="userSpaceOnUse">
<stop stop-color="#FCC072"/>
<stop offset="1" stop-color="#F58A5B"/>
</linearGradient>
<linearGradient id="paint3_linear_0_321" x1="30.8983" y1="56.1479" x2="42.987" y2="35.0239" gradientUnits="userSpaceOnUse">
<stop stop-color="#712B8F"/>
<stop offset="1" stop-color="#EA1D27"/>
</linearGradient>
</defs>
</svg>
