<svg width="18" height="21" viewBox="0 0 18 21" fill="none" xmlns="http://www.w3.org/2000/svg">
<path d="M3.39951 3.75953C4.88982 2.29902 6.89631 1.48566 8.98294 1.49619C11.0696 1.50673 13.0677 2.34032 14.5432 3.81581C16.0187 5.2913 16.8523 7.28946 16.8628 9.37609C16.8734 11.4627 16.06 13.4692 14.5995 14.9595L10.4135 19.1455C10.0385 19.5205 9.52984 19.7311 8.99951 19.7311C8.46918 19.7311 7.96056 19.5205 7.58551 19.1455L3.39951 14.9595C1.91439 13.4743 1.08008 11.4599 1.08008 9.35953C1.08008 7.25915 1.91439 5.24479 3.39951 3.75953Z" stroke="white" stroke-width="1.5" stroke-linejoin="round"/>
<path d="M9 12.3594C10.6569 12.3594 12 11.0162 12 9.35937C12 7.70252 10.6569 6.35938 9 6.35938C7.34315 6.35938 6 7.70252 6 9.35937C6 11.0162 7.34315 12.3594 9 12.3594Z" stroke="white" stroke-width="1.5" stroke-linecap="round" stroke-linejoin="round"/>
</svg>
