<svg width="14" height="18" viewBox="0 0 14 18" fill="none" xmlns="http://www.w3.org/2000/svg">
<path d="M3.25 13.5C1.87825 13.809 1 14.283 1 14.8155C1 15.7455 3.6865 16.5 7 16.5C10.3135 16.5 13 15.7455 13 14.8155C13 14.283 12.1217 13.809 10.75 13.5M8.875 6.75C8.875 7.24728 8.67746 7.72419 8.32583 8.07583C7.97419 8.42746 7.49728 8.625 7 8.625C6.50272 8.625 6.02581 8.42746 5.67417 8.07583C5.32254 7.72419 5.125 7.24728 5.125 6.75C5.125 6.25272 5.32254 5.77581 5.67417 5.42417C6.02581 5.07254 6.50272 4.875 7 4.875C7.49728 4.875 7.97419 5.07254 8.32583 5.42417C8.67746 5.77581 8.875 6.25272 8.875 6.75Z" stroke="#008CC8" stroke-width="1.5" stroke-linecap="round" stroke-linejoin="round"/>
<path d="M7.94311 13.1205C7.68978 13.3642 7.3519 13.5004 7.00036 13.5004C6.64882 13.5004 6.31094 13.3642 6.05761 13.1205C3.74086 10.8757 0.63661 8.3685 2.15011 4.728C2.96986 2.75925 4.93486 1.5 7.00036 1.5C9.06586 1.5 11.0316 2.76 11.8506 4.728C13.3626 8.36325 10.2659 10.8832 7.94311 13.1205Z" stroke="#008CC8" stroke-width="1.5" stroke-linecap="round" stroke-linejoin="round"/>
</svg>
