<svg width="26" height="26" viewBox="0 0 26 26" fill="none" xmlns="http://www.w3.org/2000/svg">
<path fill-rule="evenodd" clip-rule="evenodd" d="M14.1395 3C10.6763 3 7.86047 5.84093 7.86047 9.34512C7.86047 10.5321 8.38326 12.0047 9.14419 13.4735C10.8195 16.7079 13.6102 19.9656 13.6102 19.9656C13.7423 20.12 13.9358 20.2093 14.1395 20.2093C14.3433 20.2093 14.5368 20.12 14.6688 19.9656C14.6688 19.9656 17.4595 16.7079 19.1349 13.4735C19.8958 12.0047 20.4186 10.5321 20.4186 9.34512C20.4186 5.84093 17.6028 3 14.1395 3V3ZM14.1395 6.72093C12.7275 6.72093 11.5814 7.86698 11.5814 9.27907C11.5814 10.6912 12.7275 11.8372 14.1395 11.8372C15.5516 11.8372 16.6977 10.6912 16.6977 9.27907C16.6977 7.86698 15.5516 6.72093 14.1395 6.72093Z" fill="white"/>
<path fill-rule="evenodd" clip-rule="evenodd" d="M18.5898 18.0018C19.346 18.2288 19.9693 18.5098 20.4 18.8391C20.6791 19.0512 20.8837 19.2586 20.8837 19.5116C20.8837 19.6605 20.7991 19.7953 20.68 19.9302C20.4828 20.1525 20.1898 20.3525 19.827 20.5386C18.5451 21.1944 16.4726 21.6046 14.1395 21.6046C11.8065 21.6046 9.73395 21.1944 8.45209 20.5386C8.0893 20.3525 7.79628 20.1525 7.59907 19.9302C7.48 19.7953 7.39535 19.6605 7.39535 19.5116C7.39535 19.2586 7.6 19.0512 7.87907 18.8391C8.30977 18.5098 8.93302 18.2288 9.6893 18.0018C10.0577 17.8912 10.267 17.5014 10.1563 17.133C10.0456 16.7637 9.65581 16.5544 9.28744 16.6651C8.13581 17.0121 7.24093 17.4874 6.70326 18.013C6.2307 18.4735 6 18.9888 6 19.5116C6 20.1646 6.3693 20.8158 7.12 21.3591C8.43721 22.3116 11.0828 23 14.1395 23C17.1963 23 19.8419 22.3116 21.1591 21.3591C21.9098 20.8158 22.2791 20.1646 22.2791 19.5116C22.2791 18.9888 22.0484 18.4735 21.5758 18.013C21.0381 17.4874 20.1433 17.0121 18.9916 16.6651C18.6233 16.5544 18.2335 16.7637 18.1228 17.133C18.0121 17.5014 18.2214 17.8912 18.5898 18.0018V18.0018Z" fill="white"/>
</svg>
