<svg width="17" height="18" viewBox="0 0 17 18" fill="none" xmlns="http://www.w3.org/2000/svg">
<path d="M5 1V3.25" stroke="#090C10" stroke-width="1.5" stroke-miterlimit="10" stroke-linecap="round" stroke-linejoin="round"/>
<path d="M11 1V3.25" stroke="#090C10" stroke-width="1.5" stroke-miterlimit="10" stroke-linecap="round" stroke-linejoin="round"/>
<path d="M1.625 6.3175H14.375" stroke="#090C10" stroke-width="1.5" stroke-miterlimit="10" stroke-linecap="round" stroke-linejoin="round"/>
<path d="M12.5 16.75C14.1569 16.75 15.5 15.4069 15.5 13.75C15.5 12.0931 14.1569 10.75 12.5 10.75C10.8431 10.75 9.5 12.0931 9.5 13.75C9.5 15.4069 10.8431 16.75 12.5 16.75Z" stroke="#090C10" stroke-width="1.5" stroke-miterlimit="10" stroke-linecap="round" stroke-linejoin="round"/>
<path d="M13.6175 13.7875H11.3825" stroke="#090C10" stroke-width="1.5" stroke-miterlimit="10" stroke-linecap="round" stroke-linejoin="round"/>
<path d="M12.5 12.6925V14.935" stroke="#090C10" stroke-width="1.5" stroke-miterlimit="10" stroke-linecap="round" stroke-linejoin="round"/>
<path d="M14.75 5.875V11.77C14.2025 11.1475 13.4 10.75 12.5 10.75C10.8425 10.75 9.5 12.0925 9.5 13.75C9.5 14.3125 9.6575 14.845 9.935 15.295C10.0925 15.565 10.295 15.805 10.5275 16H5C2.375 16 1.25 14.5 1.25 12.25V5.875C1.25 3.625 2.375 2.125 5 2.125H11C13.625 2.125 14.75 3.625 14.75 5.875Z" stroke="#090C10" stroke-width="1.5" stroke-miterlimit="10" stroke-linecap="round" stroke-linejoin="round"/>
<path d="M7.99661 9.77501H8.00335" stroke="#090C10" stroke-width="2" stroke-linecap="round" stroke-linejoin="round"/>
<path d="M5.22073 9.77501H5.22747" stroke="#090C10" stroke-width="2" stroke-linecap="round" stroke-linejoin="round"/>
<path d="M5.22073 12.025H5.22747" stroke="#090C10" stroke-width="2" stroke-linecap="round" stroke-linejoin="round"/>
</svg>
