<svg width="21" height="21" viewBox="0 0 21 21" fill="none" xmlns="http://www.w3.org/2000/svg">
<path d="M10.813 10.2564C10.4664 10.2564 10.1854 9.97536 10.1854 9.62878V7.33813C9.17946 7.61401 8.43814 8.53649 8.43814 9.62878C8.43814 10.9385 9.50348 12.0041 10.813 12.0041C11.9056 12.0041 12.8283 11.2626 13.1042 10.2564H10.813Z" fill="white"/>
<path d="M13.1725 5.60596V7.26906H14.8361C14.6149 6.46306 13.9787 5.82695 13.1725 5.60596Z" fill="white"/>
<path d="M16.0133 0H2.6284C2.28182 0 2.00082 0.280998 2.00082 0.62758V18.2117C2.00082 18.5583 2.28182 18.8393 2.6284 18.8393H4.35914V2.78832C4.35914 2.44174 4.64014 2.16074 4.98672 2.16074H16.6409V0.62758C16.6409 0.280998 16.3599 0 16.0133 0Z" fill="white"/>
<path d="M5.61429 3.41602V21.0001H18.3716C18.7182 21.0001 18.9992 20.7191 18.9992 20.3725V3.41602H5.61429ZM11.9173 4.89446C11.9173 4.54788 12.1983 4.26688 12.5449 4.26688C14.5468 4.26688 16.1754 5.89529 16.1754 7.89689C16.1754 8.24347 15.8944 8.52447 15.5478 8.52447H12.5449C12.1983 8.52447 11.9173 8.24347 11.9173 7.89689V4.89446ZM10.813 5.99881C11.1596 5.99881 11.4406 6.27981 11.4406 6.62639V9.00124H13.8159C14.1624 9.00124 14.4434 9.28223 14.4434 9.62882C14.4434 11.6307 12.8148 13.2593 10.813 13.2593C8.81137 13.2593 7.18301 11.6307 7.18301 9.62882C7.18297 7.62721 8.81137 5.99881 10.813 5.99881ZM15.9485 18.3064H7.25865C6.91206 18.3064 6.63107 18.0254 6.63107 17.6788C6.63107 17.3322 6.91206 17.0512 7.25865 17.0512H15.9485C16.2951 17.0512 16.5761 17.3322 16.5761 17.6788C16.5761 18.0254 16.2951 18.3064 15.9485 18.3064ZM15.9485 15.905H7.25865C6.91206 15.905 6.63107 15.624 6.63107 15.2774C6.63107 14.9308 6.91206 14.6498 7.25865 14.6498H15.9485C16.2951 14.6498 16.5761 14.9308 16.5761 15.2774C16.5761 15.624 16.2951 15.905 15.9485 15.905Z" fill="white"/>
</svg>
